
<svg
   xmlns:dc="http://purl.org/dc/elements/1.1/"
   xmlns:cc="http://creativecommons.org/ns#"
   xmlns:rdf="http://www.w3.org/1999/02/22-rdf-syntax-ns#"
   xmlns:svg="http://www.w3.org/2000/svg"
   xmlns="http://www.w3.org/2000/svg"
   viewBox="0 0 1440 557.33331"
   height="557.33331"
   width="1440"
   xml:space="preserve">
     <g
     transform="matrix(1.3333333,0,0,-1.3333333,0,557.33333)"
     id="g10">
     <g
       transform="scale(0.1)"
       id="g12"
      >
       <path
         style="fill:#171717;fill-opacity:1;fill-rule:nonzero;stroke:none"
         d="m 5437.97,2904.3 c 87.4,0 161.81,-72.52 161.81,-159.93 0,-85.58 -74.41,-158.13 -161.81,-158.13 -85.55,0 -158.08,72.55 -158.08,158.13 0,87.41 72.53,159.93 158.08,159.93" />
         <path
         style="fill:#171717;fill-opacity:1;fill-rule:nonzero;stroke:none"
         d="M 2881.11,3519.39 1429.96,2681.58 v -299.56 l 395.31,-228.23 -395.31,-228.22 V 660.621 l 1451.15,837.799 v 299.56 l -395.31,228.23 395.31,228.25 z m -1056.43,-1111.48 -214.56,123.88 1051.2,606.9 v -247.76 z m 220.37,-381.01 221.53,-127.91 -616.84,-356.13 v 255.81 z m 441.33,-254.81 214.57,-123.88 -1051.21,-606.9 v 247.76 z m 174.94,609.24 -395.3,-228.23 -221.53,127.91 616.83,356.13 v -255.81" />
         <path
         style="fill:#171717;fill-opacity:1;fill-rule:nonzero;stroke:none"
         d="m 3870.46,2055.3 c -33.04,8.31 -66.63,14.79 -98.84,20.72 -122.45,22.45 -230.61,36.74 -230.61,110.23 0,40.81 30.6,91.82 148.97,91.82 102.05,0 175.53,-38.78 232.68,-89.81 l 140.82,171.44 c -93.87,79.63 -232.65,130.63 -383.69,130.63 -200.03,0 -395.96,-85.71 -395.96,-310.23 0,-197.07 149.92,-258.34 296.7,-292.2 29.54,-6.8 58.97,-12.55 87.01,-18 118.37,-22.47 187.78,-38.8 187.78,-100.03 0,-55.08 -61.23,-77.53 -146.97,-77.53 -83.69,0 -189.65,22.55 -277.32,109.24 l -210.47,-121.5 c 100.03,-132.66 300.04,-202.07 469.42,-202.07 218.41,0 424.53,114.3 424.53,326.56 0,160.12 -117.92,218.96 -244.05,250.73" />
         <path
         style="fill:#171717;fill-opacity:1;fill-rule:nonzero;stroke:none"
         d="m 4727.15,2018.87 455.12,446.98 h -359.2 l -342.86,-353.09 v 728.62 H 4218.95 V 1498.42 h 262.79 l 0.51,391.89 389.79,-391.89 h 365.34 l -510.23,520.45" />
         <path
         style="fill:#171717;fill-opacity:1;fill-rule:nonzero;stroke:none"
         d="m 5308.96,1498.44 h 261.23 v 967.4 h -261.23 v -967.4" />
         <path
         style="fill:#171717;fill-opacity:1;fill-rule:nonzero;stroke:none"
         d="m 6454.9,2335.22 c -61.23,100.01 -175.53,155.12 -314.31,155.12 -240.83,0 -477.57,-169.41 -477.57,-504.12 0,-338.79 242.86,-508.2 487.79,-508.2 138.78,0 236.74,55.11 306.12,138.78 v -118.37 h 259.22 V 2841.39 H 6454.9 Z M 6187.52,1696.4 c -157.15,0 -265.31,110.22 -265.31,289.82 0,183.67 112.23,285.74 261.23,285.74 128.6,0 269.42,-77.56 269.42,-287.78 0,-193.9 -120.42,-287.78 -265.34,-287.78" />
         <path
         style="fill:#171717;fill-opacity:1;fill-rule:nonzero;stroke:none"
         d="m 7594.38,2335.22 c -61.22,100.01 -175.52,155.12 -314.3,155.12 -240.83,0 -477.58,-169.41 -477.58,-504.12 0,-338.79 242.87,-508.2 487.77,-508.2 138.81,0 236.77,55.11 306.15,138.78 v -118.37 h 259.2 V 2841.39 H 7594.38 Z M 7327.01,1696.4 c -157.16,0 -265.31,110.22 -265.31,289.82 0,183.67 112.26,285.74 261.23,285.74 128.59,0 269.41,-77.56 269.41,-287.78 0,-193.9 -120.41,-287.78 -265.33,-287.78" />
         <path
         style="fill:#171717;fill-opacity:1;fill-rule:nonzero;stroke:none"
         d="m 8369.23,1702.2 c -9.77,-2.33 -19.83,-3.76 -29.86,-3.76 -61.23,0 -120.41,32.64 -120.41,122.45 V 2841.37 H 7957.7 V 1816.82 c 0,-240.83 159.19,-338.79 330.63,-338.79 70.94,0 143.87,18.13 208.83,48.36 -54.32,50.26 -97.15,109.32 -127.93,175.81" />
         <path
         style="fill:#171717;fill-opacity:1;fill-rule:nonzero;stroke:none"
         d="m 9370.04,2004.59 c 0,324.5 -212.27,485.75 -449.02,485.75 -246.93,0 -493.9,-175.55 -493.9,-510.26 0,-338.79 253.08,-502.06 510.24,-502.06 169.41,0 320.42,69.41 424.52,200.01 l -157.17,157.15 c -65.31,-85.71 -159.2,-128.56 -265.31,-128.56 -104.09,0 -224.5,42.85 -246.97,175.52 h 669.45 c 6.12,51.01 8.16,89.79 8.16,122.45 m -677.61,75.52 c 16.33,110.2 95.93,189.79 220.44,189.79 114.3,0 197.97,-67.34 210.2,-189.79 h -430.64" />
      </g>
  </g>
</svg>